<?xml version="1.0" encoding="UTF-8"?>
<!DOCTYPE svg PUBLIC "-//W3C//DTD SVG 1.1//EN" "http://www.w3.org/Graphics/SVG/1.1/DTD/svg11.dtd">
<svg xmlns="http://www.w3.org/2000/svg" version="1.1" width="50px" height="50px" style="shape-rendering:geometricPrecision; text-rendering:geometricPrecision; image-rendering:optimizeQuality; fill-rule:evenodd; clip-rule:evenodd" xmlns:xlink="http://www.w3.org/1999/xlink">
<g><path style="opacity:0.95" fill="#fefffe" d="M 4.5,3.5 C 17.8333,3.5 31.1667,3.5 44.5,3.5C 45.1634,7.49029 45.8301,11.4903 46.5,15.5C 45.6034,25.478 45.2701,35.478 45.5,45.5C 31.5,45.5 17.5,45.5 3.5,45.5C 3.72991,35.478 3.39657,25.478 2.5,15.5C 3.16992,11.4903 3.83659,7.49029 4.5,3.5 Z M 6.5,9.5 C 18.5,9.5 30.5,9.5 42.5,9.5C 43.4492,12.2075 43.4492,14.8742 42.5,17.5C 41.5,16.8333 40.5,16.1667 39.5,15.5C 38.5,16.1667 37.5,16.8333 36.5,17.5C 35.5,16.8333 34.5,16.1667 33.5,15.5C 32.5,16.1667 31.5,16.8333 30.5,17.5C 29.5,16.8333 28.5,16.1667 27.5,15.5C 26.5,16.1667 25.5,16.8333 24.5,17.5C 23.5,16.8333 22.5,16.1667 21.5,15.5C 20.5,16.1667 19.5,16.8333 18.5,17.5C 17.5,16.8333 16.5,16.1667 15.5,15.5C 14.5,16.1667 13.5,16.8333 12.5,17.5C 11.5,16.8333 10.5,16.1667 9.5,15.5C 8.5,16.1667 7.5,16.8333 6.5,17.5C 5.55075,14.8742 5.55075,12.2075 6.5,9.5 Z M 11.5,25.5 C 15.5,25.5 19.5,25.5 23.5,25.5C 23.5,31.5 23.5,37.5 23.5,43.5C 19.5,43.5 15.5,43.5 11.5,43.5C 11.5,37.5 11.5,31.5 11.5,25.5 Z M 25.5,25.5 C 29.5,25.5 33.5,25.5 37.5,25.5C 37.5,31.5 37.5,37.5 37.5,43.5C 33.5,43.5 29.5,43.5 25.5,43.5C 25.5,37.5 25.5,31.5 25.5,25.5 Z"/></g>
<g><path style="opacity:0.766" fill="#fefffe" d="M 19.5,32.5 C 21.337,32.6395 21.6704,33.3061 20.5,34.5C 19.7025,34.0431 19.3691,33.3764 19.5,32.5 Z"/></g>
<g><path style="opacity:0.766" fill="#fefffe" d="M 27.5,32.5 C 29.337,32.6395 29.6704,33.3061 28.5,34.5C 27.7025,34.0431 27.3691,33.3764 27.5,32.5 Z"/></g>
</svg>
